<svg xmlns="http://www.w3.org/2000/svg" width="19.692" height="16" viewBox="0 0 19.692 16">
  <g id="download_icon" transform="translate(0 -2.25)">
    <path id="Tracciato_6964" data-name="Tracciato 6964" d="M.615,18a.615.615,0,0,1,.615.615v4.308a1.231,1.231,0,0,0,1.231,1.231H17.231a1.231,1.231,0,0,0,1.231-1.231V18.615a.615.615,0,0,1,1.231,0v4.308a2.462,2.462,0,0,1-2.462,2.462H2.462A2.462,2.462,0,0,1,0,22.923V18.615A.615.615,0,0,1,.615,18Z" transform="translate(0 -7.135)" fill="#1b41ff" fill-rule="evenodd"/>
    <path id="Tracciato_6965" data-name="Tracciato 6965" d="M11.1,16.726a.615.615,0,0,1,.87,0l2.822,2.822,2.822-2.822a.615.615,0,1,1,.87.87l-3.257,3.258a.615.615,0,0,1-.871,0L11.1,17.6A.615.615,0,0,1,11.1,16.726Z" transform="translate(-4.947 -6.476)" fill="#1b41ff" fill-rule="evenodd"/>
    <path id="Tracciato_6966" data-name="Tracciato 6966" d="M17.49,2.25a.615.615,0,0,1,.615.615v9.846a.615.615,0,0,1-1.231,0V2.865A.615.615,0,0,1,17.49,2.25Z" transform="translate(-7.644)" fill="#1b41ff" fill-rule="evenodd"/>
  </g>
</svg>
