<svg xmlns="http://www.w3.org/2000/svg" xmlns:xlink="http://www.w3.org/1999/xlink" width="32" height="32" viewBox="0 0 32 32">
  <defs>
    <clipPath id="clip-path">
      <rect id="Rettangolo_13822" data-name="Rettangolo 13822" width="32" height="32" fill="#E4376B"/>
    </clipPath>
  </defs>
  <g id="heart_icon" transform="translate(16 16)">
    <g id="Raggruppa_20263" data-name="Raggruppa 20263" transform="translate(-16 -16)">
      <g id="Raggruppa_20262" data-name="Raggruppa 20262" clip-path="url(#clip-path)">
        <g id="Raggruppa_20261" data-name="Raggruppa 20261" transform="translate(0 1.262)">
          <path id="Tracciato_14345" data-name="Tracciato 14345" d="M16,49.665a1.452,1.452,0,0,1-.822-.255C8.5,44.832,3.949,40.208,1.647,35.667-.815,30.809-.065,27.315,1,25.239A9.406,9.406,0,0,1,8,20.3a8.6,8.6,0,0,1,7.556,2.426l.446.458.447-.46A8.6,8.6,0,0,1,24,20.3a9.408,9.408,0,0,1,7,4.942c1.062,2.075,1.811,5.567-.65,10.428-2.308,4.544-6.86,9.167-13.531,13.744A1.452,1.452,0,0,1,16,49.665ZM9.413,23.1a6.632,6.632,0,0,0-.984.074,6.493,6.493,0,0,0-4.844,3.391c-.754,1.474-1.253,4.022.655,7.788C6.2,38.214,10.254,42.38,16,46.439c5.742-4.058,9.8-8.225,11.76-12.088,1.907-3.767,1.409-6.314.655-7.787a6.5,6.5,0,0,0-4.845-3.392,5.727,5.727,0,0,0-5.038,1.577l-1.488,1.532A1.454,1.454,0,0,1,16,26.722h0a1.454,1.454,0,0,1-1.042-.44l-1.489-1.531A5.584,5.584,0,0,0,9.413,23.1Z" transform="translate(0 -20.188)" fill="#c777ff"/>
        </g>
      </g>
    </g>
  </g>
</svg>
