<svg xmlns="http://www.w3.org/2000/svg" xmlns:xlink="http://www.w3.org/1999/xlink" width="24" height="24" viewBox="0 0 24 24">
  <defs>
    <clipPath id="clip-path">
      <rect id="Rettangolo_11281" data-name="Rettangolo 11281" width="24" height="24" transform="translate(837 462)" fill="#dbdbdb" stroke="#707070" stroke-width="1"/>
    </clipPath>
  </defs>
  <g id="password_icon" transform="translate(-837 -462)" clip-path="url(#clip-path)">
    <g id="password" transform="translate(834.751 459.767)">
      <path id="Tracciato_6822" data-name="Tracciato 6822" d="M18.512,2.25a7.7,7.7,0,0,0-7.7,7.7,7.592,7.592,0,0,0,.334,2.234L2.25,21.08v5.136H7.386l8.893-8.893a7.7,7.7,0,0,0,9.937-6.736A7.506,7.506,0,0,0,24.8,5.451a7.7,7.7,0,0,0-6.291-3.2Zm0,13.695a5.991,5.991,0,0,1-1.712-.256l-.984-.3-.727.727-2.722,2.722L11.16,17.656,9.953,18.863l1.181,1.181L9.773,21.405,8.592,20.224,7.386,21.431l1.181,1.181L6.675,24.5H3.962V21.791l8.388-8.414.727-.727-.248-.813a6.111,6.111,0,0,1,2.91-7.224A5.991,5.991,0,0,1,24.5,9.748a5.726,5.726,0,0,1-.933,3.424A5.991,5.991,0,0,1,18.512,15.945Z" fill="#dbdbdb"/>
      <path id="Tracciato_6823" data-name="Tracciato 6823" d="M25.924,10.712A1.712,1.712,0,1,1,24.212,9,1.712,1.712,0,0,1,25.924,10.712Z" transform="translate(-4.843 -1.615)" fill="#dbdbdb"/>
    </g>
  </g>
</svg>
