<svg id="search_icon" xmlns="http://www.w3.org/2000/svg" width="24" height="23.999" viewBox="0 0 24 23.999">
  <path id="Tracciato_6986" data-name="Tracciato 6986" d="M23.276,23.275a1.5,1.5,0,0,1,2.123,0l5.775,5.775a1.5,1.5,0,1,1-2.121,2.123L23.278,25.4a1.5,1.5,0,0,1,0-2.123Z" transform="translate(-7.613 -7.612)" fill="#1b41ff" fill-rule="evenodd"/>
  <path id="Tracciato_6987" data-name="Tracciato 6987" d="M9.75,18A8.25,8.25,0,1,0,1.5,9.75,8.25,8.25,0,0,0,9.75,18ZM19.5,9.75A9.75,9.75,0,1,1,9.75,0,9.75,9.75,0,0,1,19.5,9.75Z" fill="#1b41ff" fill-rule="evenodd"/>
</svg>
