<svg xmlns="http://www.w3.org/2000/svg" width="18" height="18.488" viewBox="0 0 18 18.488">
  <g id="impostazioni_account_icon" transform="translate(-2.715 -2.295)">
    <path id="Tracciato_6958" data-name="Tracciato 6958" d="M18.995,12.042V11.029l1.271-1.112a1.324,1.324,0,0,0,.251-1.689L18.955,5.579a1.335,1.335,0,0,0-1.569-.6l-1.609.543a7.515,7.515,0,0,0-.868-.5l-.338-1.669a1.324,1.324,0,0,0-1.324-1.066h-3.1A1.324,1.324,0,0,0,8.824,3.361L8.486,5.029a7.6,7.6,0,0,0-.874.5l-1.576-.57a1.324,1.324,0,0,0-.423-.039,1.324,1.324,0,0,0-1.145.662L2.9,8.228A1.324,1.324,0,0,0,3.176,9.89l1.251,1.145v1.013L3.176,13.16A1.324,1.324,0,0,0,2.9,14.849L4.468,17.5a1.335,1.335,0,0,0,1.569.6l1.609-.543a7.515,7.515,0,0,0,.868.5l.338,1.669a1.324,1.324,0,0,0,1.324,1.066H13.3a1.324,1.324,0,0,0,1.324-1.066l.338-1.669a7.6,7.6,0,0,0,.874-.5l1.6.543a1.335,1.335,0,0,0,1.569-.6l1.51-2.649a1.324,1.324,0,0,0-.271-1.662Zm-1.185,4.794-2.271-.768a5.866,5.866,0,0,1-1.795,1.039l-.47,2.377H10.149l-.47-2.351A6.2,6.2,0,0,1,7.89,16.094l-2.277.742L4.05,14.187l1.8-1.589a5.893,5.893,0,0,1,0-2.072L4.05,8.89,5.613,6.241l2.271.768A5.866,5.866,0,0,1,9.679,5.97l.47-2.377h3.125l.47,2.351a6.2,6.2,0,0,1,1.788,1.039l2.277-.742L19.372,8.89l-1.8,1.589a5.893,5.893,0,0,1,0,2.072l1.8,1.636Z" transform="translate(0)" fill="#1b41ff"/>
    <path id="Tracciato_6959" data-name="Tracciato 6959" d="M15.223,19.2a3.933,3.933,0,1,1,2.821-1.152A3.973,3.973,0,0,1,15.223,19.2Zm0-6.621a2.589,2.589,0,1,0,1.891.758,2.589,2.589,0,0,0-1.891-.758Z" transform="translate(-3.512 -3.685)" fill="#1b41ff"/>
  </g>
</svg>
