<svg xmlns="http://www.w3.org/2000/svg" width="18" height="12.375" viewBox="0 0 18 12.375">
  <g id="eye_icon" transform="translate(0 -5.625)">
    <path id="Tracciato_6946" data-name="Tracciato 6946" d="M18,11.813S14.625,5.625,9,5.625s-9,6.188-9,6.188S3.375,18,9,18,18,11.813,18,11.813Zm-16.681,0a14.776,14.776,0,0,0,1.868,2.3A8.383,8.383,0,0,0,9,16.875a8.39,8.39,0,0,0,5.814-2.764,14.776,14.776,0,0,0,1.867-2.3,14.774,14.774,0,0,0-1.867-2.3A8.392,8.392,0,0,0,9,6.75,8.39,8.39,0,0,0,3.186,9.514a14.774,14.774,0,0,0-1.867,2.3Z" fill="#dbdbdb" fill-rule="evenodd"/>
    <path id="Tracciato_6947" data-name="Tracciato 6947" d="M14.063,11.25a2.813,2.813,0,1,0,2.813,2.813,2.813,2.813,0,0,0-2.812-2.813Zm-3.937,2.813A3.938,3.938,0,1,1,14.062,18,3.938,3.938,0,0,1,10.125,14.063Z" transform="translate(-5.063 -2.25)" fill="#dbdbdb" fill-rule="evenodd"/>
  </g>
</svg>
