<svg xmlns="http://www.w3.org/2000/svg" width="48" height="37.941" viewBox="0 0 48 37.941">
  <g id="upload_icon" transform="translate(0 -3.044)">
    <path id="Tracciato_6960" data-name="Tracciato 6960" d="M1.5,22.985a1.5,1.5,0,0,1,1.5,1.5v10.5a3,3,0,0,0,3,3H42a3,3,0,0,0,3-3v-10.5a1.5,1.5,0,0,1,3,0v10.5a6,6,0,0,1-6,6H6a6,6,0,0,1-6-6v-10.5a1.5,1.5,0,0,1,1.5-1.5ZM15,13.547a1.5,1.5,0,0,0,2.121,0L24,6.665l6.879,6.879A1.5,1.5,0,1,0,33,11.424L25.061,3.485a1.5,1.5,0,0,0-2.124,0L15,11.424a1.5,1.5,0,0,0,0,2.124Z" fill="#1b41ff" fill-rule="evenodd"/>
    <path id="Tracciato_6961" data-name="Tracciato 6961" d="M18,4.5a1.125,1.125,0,0,1,1.125,1.125v18a1.125,1.125,0,0,1-2.25,0v-18A1.125,1.125,0,0,1,18,4.5Z" transform="translate(6)" fill="#1b41ff" fill-rule="evenodd"/>
  </g>
</svg>
